<?xml version="1.0" encoding="utf-8"?>
<!-- Generator: Adobe Illustrator 19.0.0, SVG Export Plug-In . SVG Version: 6.00 Build 0)  -->
<svg version="1.1" id="Layer_1" xmlns="http://www.w3.org/2000/svg" xmlns:xlink="http://www.w3.org/1999/xlink" x="0px" y="0px"
	 viewBox="0 0 24 24" style="enable-background:new 0 0 24 24;" xml:space="preserve">
<style type="text/css">
	.st0{fill:#10B9FF;}
</style>
<g>
	<g>
		<path class="st0" d="M13.9,23.4h-3.3c-0.2,0-0.3-0.1-0.4-0.3c-0.1-0.2,0-0.4,0.1-0.5l2.1-2.5h-2.3v-0.9h3.3c0.2,0,0.3,0.1,0.4,0.3
			c0.1,0.2,0,0.4-0.1,0.5l-2.1,2.5h2.3V23.4z"/>
	</g>
	<g>
		<polygon class="st0" points="1.9,21.5 10.4,12.2 10.8,12.2 4.8,21.5 		"/>
		<polygon class="st0" points="22.1,21.5 13.6,12.2 13.2,12.2 19.2,21.5 		"/>
		<polygon class="st0" points="12.4,12.2 11.8,12.2 11.7,13.2 12.5,13.2 		"/>
		<polygon class="st0" points="12.5,13.8 11.6,13.8 11.5,15 12.6,15 		"/>
		<polygon class="st0" points="12.8,18.2 12.6,15.6 11.5,15.6 11.2,18.2 		"/>
	</g>
	<path class="st0" d="M23,19.9v-8l-2.3-1.4l-1,1l-2.4-2.2L19,6.4l-3.4-5.8H8.8L5.4,6.5l1.7,2.9l-2.8,2.2l-1-1L1,12v8l8.3-7.6h5.5
		L23,19.9z M9.2,1.4h5.9L18,6.5l-2.7,4.6L15,11.6H9.2L6.3,6.5L9.2,1.4z"/>
	<polygon class="st0" points="15,6.5 10.4,3.2 10.4,9.7 	"/>
</g>
</svg>
